<svg viewBox="0 0 280 109" xmlns="http://www.w3.org/2000/svg" fill-rule="evenodd" clip-rule="evenodd" stroke-linecap="round" stroke-linejoin="round" stroke-miterlimit="1.5">
  <g fill="#fff" fill-rule="nonzero">
    <path d="M6.8 55c0-8 1.8-14.7 5.3-19.6 3.5-5 8.3-7.4 14.2-7.4 6.8 0 12 3 15.5 8.5V6.7h5.5v75.5H42l-.2-7c-3.5 5.3-8.8 8-15.7 8-5.6 0-10.3-2.4-13.8-7.4-3.6-5-5.4-11.6-5.4-20V55zm5.7 1.2c0 6.8 1.2 12 3.8 16 2.6 4 6.2 6 11 6 6.7 0 11.5-3.3 14.4-9.7v-25c-3-7-7.7-10.4-14.5-10.4-4.6 0-8.3 2-11 6-2.4 4-3.7 9.6-3.7 17.2zM88.4 82.2c-.6-1.6-1-4-1-7.4-2 2.7-4.5 4.8-7.5 6.2-3 1.5-6.3 2.2-9.7 2.2-4.8 0-8.7-1.4-11.7-4.3-3-3-4.5-6.5-4.5-11 0-5 2-9.2 6.2-12.2 4-3 9.7-4.5 17-4.5h10v-6c0-4-1-7-3.2-9-2.3-2.2-5.5-3.3-9.7-3.3-4 0-7 1-9.6 3-2.5 2.2-3.8 4.8-3.8 7.7h-5.7c0-4.3 2-8 5.6-11 3.6-3 8.2-4.7 13.6-4.7 5.6 0 10 1.5 13.2 4.5 3.2 3 5 7 5 12.4v25c0 5.2.5 9 1.5 11.6v.6h-6zM71 78c3.7 0 7-1 10-2.8 2.8-2 5-4.5 6.3-7.7V55.8h-10c-5.5 0-9.8 1.2-13 3.2-3 2-4.6 5-4.6 8.6 0 3 1 5.5 3 7.5 2.2 2 5 3 8.2 3zM117.7 73.8L132.3 29h6L117 91.3l-1.2 2.7c-2.8 6.5-7 9.7-12.8 9.7-1.3 0-2.7-.2-4.3-.6v-4.8l3 .3c2.6 0 4.8-.7 6.5-2.2 1.7-1.4 3-3.8 4.3-7.3l2.4-7.2L96 29h6l15.7 44.8zM171.8 68.7c0-3-1-5.3-3.3-7-2.2-1.8-5.6-3.2-10-4.2-4.5-1-8-2-10.4-3.4-2.3-1.2-4.2-2.8-5.3-4.7-1.2-1.8-1.8-4-1.8-6.8 0-4.2 1.5-7.6 4.8-10.4 3.3-2.6 7.6-4 12.7-4 5.6 0 10 1.5 13.5 4.4 3.4 3 5 6.8 5 11.5h-5.5c0-3.2-1.2-5.8-3.7-8-2.4-2-5.5-3-9.3-3-3.6 0-6.5 1-8.7 2.6-2.3 1.7-3.4 4-3.4 6.7s1 4.8 2.8 6.2c1.8 1.5 5.2 2.8 10 4 5 1.2 8.6 2.5 11 4 2.4 1.3 4.2 3 5.4 5 1.2 1.8 1.8 4.2 1.8 7 0 4.4-1.7 8-5.2 10.7-3.4 2.7-7.8 4-13.3 4-6 0-10.7-1.5-14.4-4.5-3.6-3-5.4-6.8-5.4-11.4h5.6c.2 3.5 1.6 6.2 4 8 2.6 2 6 3 10 3s7-1 9.4-2.7c2.4-2 3.6-4 3.6-7zM184.2 78.7c0-1.2.3-2 1-3 .7-.7 1.7-1 3-1 1.2 0 2.2.3 3 1 .6 1 1 1.8 1 3 0 1-.4 2-1 2.8-.8.8-1.8 1-3 1-1.3 0-2.3-.2-3-1-.7-.7-1-1.7-1-2.8zM212 16v13h9.5v7H212v33c0 2.2.5 3.8 1.4 5 .8 1 2.2 1.5 4.2 1.5 1 0 2.4-.2 4-.6V82c-2 .7-4.3 1-6.5 1-3.7 0-6.6-1.2-8.5-3.7-2-2.4-3-6-3-10.4V36h-9v-7h9V16h8.6z"/>
  </g>
  <g fill="#fff" stroke="#fff" stroke-width="3.4">
    <path d="M249.5 49.7v7.6M259.5 65l-10-7.6"/>
  </g>
  <path d="M247.5 31l-.2 8.6C238.7 41 232 48.4 232 57.4c0 10 8.2 18 18.2 18s18-8 18-18c0-3.4-2.6-12.4-8-15 1.4-1.4 5.3-6.7 5.7-6.4 6 4.8 10.8 13 10.8 21.4 0 14.7-12 26.6-26.6 26.6-14.7 0-26.7-12-26.7-26.6 0-13.8 10.5-25.2 24-26.5z" fill="red"/>
  <path d="M258.2 35.2l-12.5 12L246 23l12.2 12.2z" fill="#ff2323" stroke="#ff2323" stroke-width="1.5"/>
</svg>

